0
SECTION
2
HEADER
9
$ACADVER
1
AC1009
0
ENDSEC
0
SECTION
2
TABLES
0
TABLE
2
LAYER
70
5
0
LAYER
2
CUT_HOLES
70
0
62
1
6
CONTINUOUS
0
LAYER
2
CUT_OUTLINE
70
0
62
1
6
CONTINUOUS
0
LAYER
2
PRINT_GUIDES
70
0
62
4
6
CONTINUOUS
0
LAYER
2
REGISTRATION_MARKS
70
0
62
3
6
CONTINUOUS
0
LAYER
2
NO_CUT_LABELS
70
0
62
7
6
CONTINUOUS
0
ENDTAB
0
ENDSEC
0
SECTION
2
ENTITIES
0
CIRCLE
8
CUT_HOLES
10
20.0000
20
59.7000
30
0.0
40
1.5875
0
CIRCLE
8
CUT_HOLES
10
28.0000
20
59.7000
30
0.0
40
1.5875
0
CIRCLE
8
CUT_HOLES
10
36.0000
20
51.3000
30
0.0
40
1.5875
0
CIRCLE
8
CUT_HOLES
10
44.0000
20
51.3000
30
0.0
40
1.5875
0
CIRCLE
8
CUT_HOLES
10
52.0000
20
49.2000
30
0.0
40
1.5875
0
CIRCLE
8
CUT_HOLES
10
60.0000
20
49.2000
30
0.0
40
1.5875
0
CIRCLE
8
CUT_HOLES
10
68.0000
20
51.3000
30
0.0
40
1.5875
0
CIRCLE
8
CUT_HOLES
10
84.0000
20
53.4000
30
0.0
40
1.5875
0
CIRCLE
8
CUT_HOLES
10
92.0000
20
53.4000
30
0.0
40
1.5875
0
CIRCLE
8
CUT_HOLES
10
100.0000
20
55.5000
30
0.0
40
1.5875
0
CIRCLE
8
CUT_HOLES
10
108.0000
20
55.5000
30
0.0
40
1.5875
0
CIRCLE
8
CUT_HOLES
10
116.0000
20
57.6000
30
0.0
40
1.5875
0
CIRCLE
8
CUT_HOLES
10
124.0000
20
57.6000
30
0.0
40
1.5875
0
CIRCLE
8
CUT_HOLES
10
132.0000
20
59.7000
30
0.0
40
1.5875
0
LINE
8
CUT_OUTLINE
10
0.0000
20
0.0000
30
0.0
11
900.0000
21
0.0000
31
0.0
0
LINE
8
CUT_OUTLINE
10
900.0000
20
0.0000
30
0.0
11
900.0000
21
70.0000
31
0.0
0
LINE
8
CUT_OUTLINE
10
900.0000
20
70.0000
30
0.0
11
0.0000
21
70.0000
31
0.0
0
LINE
8
CUT_OUTLINE
10
0.0000
20
70.0000
30
0.0
11
0.0000
21
0.0000
31
0.0
0
LINE
8
PRINT_GUIDES
10
0.0000
20
3.0000
30
0.0
11
900.0000
21
3.0000
31
0.0
0
LINE
8
PRINT_GUIDES
10
0.0000
20
5.1000
30
0.0
11
900.0000
21
5.1000
31
0.0
0
LINE
8
PRINT_GUIDES
10
0.0000
20
7.2000
30
0.0
11
900.0000
21
7.2000
31
0.0
0
LINE
8
PRINT_GUIDES
10
0.0000
20
9.3000
30
0.0
11
900.0000
21
9.3000
31
0.0
0
LINE
8
PRINT_GUIDES
10
0.0000
20
11.4000
30
0.0
11
900.0000
21
11.4000
31
0.0
0
LINE
8
PRINT_GUIDES
10
0.0000
20
13.5000
30
0.0
11
900.0000
21
13.5000
31
0.0
0
LINE
8
PRINT_GUIDES
10
0.0000
20
15.6000
30
0.0
11
900.0000
21
15.6000
31
0.0
0
LINE
8
PRINT_GUIDES
10
0.0000
20
17.7000
30
0.0
11
900.0000
21
17.7000
31
0.0
0
LINE
8
PRINT_GUIDES
10
0.0000
20
19.8000
30
0.0
11
900.0000
21
19.8000
31
0.0
0
LINE
8
PRINT_GUIDES
10
0.0000
20
21.9000
30
0.0
11
900.0000
21
21.9000
31
0.0
0
LINE
8
PRINT_GUIDES
10
0.0000
20
24.0000
30
0.0
11
900.0000
21
24.0000
31
0.0
0
LINE
8
PRINT_GUIDES
10
0.0000
20
26.1000
30
0.0
11
900.0000
21
26.1000
31
0.0
0
LINE
8
PRINT_GUIDES
10
0.0000
20
28.2000
30
0.0
11
900.0000
21
28.2000
31
0.0
0
LINE
8
PRINT_GUIDES
10
0.0000
20
30.3000
30
0.0
11
900.0000
21
30.3000
31
0.0
0
LINE
8
PRINT_GUIDES
10
0.0000
20
32.4000
30
0.0
11
900.0000
21
32.4000
31
0.0
0
LINE
8
PRINT_GUIDES
10
0.0000
20
34.5000
30
0.0
11
900.0000
21
34.5000
31
0.0
0
LINE
8
PRINT_GUIDES
10
0.0000
20
36.6000
30
0.0
11
900.0000
21
36.6000
31
0.0
0
LINE
8
PRINT_GUIDES
10
0.0000
20
38.7000
30
0.0
11
900.0000
21
38.7000
31
0.0
0
LINE
8
PRINT_GUIDES
10
0.0000
20
40.8000
30
0.0
11
900.0000
21
40.8000
31
0.0
0
LINE
8
PRINT_GUIDES
10
0.0000
20
42.9000
30
0.0
11
900.0000
21
42.9000
31
0.0
0
LINE
8
PRINT_GUIDES
10
0.0000
20
45.0000
30
0.0
11
900.0000
21
45.0000
31
0.0
0
LINE
8
PRINT_GUIDES
10
0.0000
20
47.1000
30
0.0
11
900.0000
21
47.1000
31
0.0
0
LINE
8
PRINT_GUIDES
10
0.0000
20
49.2000
30
0.0
11
900.0000
21
49.2000
31
0.0
0
LINE
8
PRINT_GUIDES
10
0.0000
20
51.3000
30
0.0
11
900.0000
21
51.3000
31
0.0
0
LINE
8
PRINT_GUIDES
10
0.0000
20
53.4000
30
0.0
11
900.0000
21
53.4000
31
0.0
0
LINE
8
PRINT_GUIDES
10
0.0000
20
55.5000
30
0.0
11
900.0000
21
55.5000
31
0.0
0
LINE
8
PRINT_GUIDES
10
0.0000
20
57.6000
30
0.0
11
900.0000
21
57.6000
31
0.0
0
LINE
8
PRINT_GUIDES
10
0.0000
20
59.7000
30
0.0
11
900.0000
21
59.7000
31
0.0
0
LINE
8
PRINT_GUIDES
10
0.0000
20
61.8000
30
0.0
11
900.0000
21
61.8000
31
0.0
0
LINE
8
PRINT_GUIDES
10
0.0000
20
63.9000
30
0.0
11
900.0000
21
63.9000
31
0.0
0
LINE
8
PRINT_GUIDES
10
20.0000
20
0.0000
30
0.0
11
20.0000
21
70.0000
31
0.0
0
LINE
8
PRINT_GUIDES
10
880.0000
20
0.0000
30
0.0
11
880.0000
21
70.0000
31
0.0
0
LINE
8
REGISTRATION_MARKS
10
1.5000
20
3.0000
30
0.0
11
4.5000
21
3.0000
31
0.0
0
LINE
8
REGISTRATION_MARKS
10
3.0000
20
1.5000
30
0.0
11
3.0000
21
4.5000
31
0.0
0
LINE
8
REGISTRATION_MARKS
10
895.5000
20
3.0000
30
0.0
11
898.5000
21
3.0000
31
0.0
0
LINE
8
REGISTRATION_MARKS
10
897.0000
20
1.5000
30
0.0
11
897.0000
21
4.5000
31
0.0
0
LINE
8
REGISTRATION_MARKS
10
1.5000
20
67.0000
30
0.0
11
4.5000
21
67.0000
31
0.0
0
LINE
8
REGISTRATION_MARKS
10
3.0000
20
65.5000
30
0.0
11
3.0000
21
68.5000
31
0.0
0
LINE
8
REGISTRATION_MARKS
10
895.5000
20
67.0000
30
0.0
11
898.5000
21
67.0000
31
0.0
0
LINE
8
REGISTRATION_MARKS
10
897.0000
20
65.5000
30
0.0
11
897.0000
21
68.5000
31
0.0
0
LINE
8
REGISTRATION_MARKS
10
5.0000
20
80.0000
30
0.0
11
105.0000
21
80.0000
31
0.0
0
LINE
8
REGISTRATION_MARKS
10
105.0000
20
80.0000
30
0.0
11
105.0000
21
88.0000
31
0.0
0
LINE
8
REGISTRATION_MARKS
10
105.0000
20
88.0000
30
0.0
11
5.0000
21
88.0000
31
0.0
0
LINE
8
REGISTRATION_MARKS
10
5.0000
20
88.0000
30
0.0
11
5.0000
21
80.0000
31
0.0
0
TEXT
8
NO_CUT_LABELS
10
2.0000
20
74.0000
30
0.0
40
3.0000
1
PRINT/CUT AT 100% - ACTUAL SIZE - DO NOT SCALE TO FIT
0
TEXT
8
NO_CUT_LABELS
10
2.0000
20
71.0000
30
0.0
40
2.0000
1
Yunsheng Y30H2-style 30-note (F-scale) | Y30H2 30-note paper (uncalibrated defaults) | Strip 1 of 1 | Feed: left-to-right
0
ENDSEC
0
EOF