<svg xmlns="http://www.w3.org/2000/svg" width="900mm" height="130mm" viewBox="0 0 900 130">
<rect x="0" y="0" width="900" height="130" fill="white"/>
<g id="PRINT_GUIDES" stroke="#0891b2" fill="none" stroke-width="0.1">
<rect x="0" y="18" width="900" height="70" stroke-dasharray="1,1"/>
<line x1="0" y1="21" x2="900" y2="21"/>
<text x="1" y="20.7" font-size="1.6" fill="#0891b2" stroke="none">A6</text>
<line x1="0" y1="23.1" x2="900" y2="23.1"/>
<text x="1" y="22.8" font-size="1.6" fill="#0891b2" stroke="none">G6</text>
<line x1="0" y1="25.2" x2="900" y2="25.2"/>
<text x="1" y="24.9" font-size="1.6" fill="#0891b2" stroke="none">F6</text>
<line x1="0" y1="27.3" x2="900" y2="27.3"/>
<text x="1" y="27" font-size="1.6" fill="#0891b2" stroke="none">E6</text>
<line x1="0" y1="29.4" x2="900" y2="29.4"/>
<text x="1" y="29.099999999999998" font-size="1.6" fill="#0891b2" stroke="none">D#6</text>
<line x1="0" y1="31.5" x2="900" y2="31.5"/>
<text x="1" y="31.2" font-size="1.6" fill="#0891b2" stroke="none">D6</text>
<line x1="0" y1="33.6" x2="900" y2="33.6"/>
<text x="1" y="33.300000000000004" font-size="1.6" fill="#0891b2" stroke="none">C#6</text>
<line x1="0" y1="35.7" x2="900" y2="35.7"/>
<text x="1" y="35.400000000000006" font-size="1.6" fill="#0891b2" stroke="none">C6</text>
<line x1="0" y1="37.8" x2="900" y2="37.8"/>
<text x="1" y="37.5" font-size="1.6" fill="#0891b2" stroke="none">B5</text>
<line x1="0" y1="39.900000000000006" x2="900" y2="39.900000000000006"/>
<text x="1" y="39.60000000000001" font-size="1.6" fill="#0891b2" stroke="none">A#5</text>
<line x1="0" y1="42" x2="900" y2="42"/>
<text x="1" y="41.7" font-size="1.6" fill="#0891b2" stroke="none">A5</text>
<line x1="0" y1="44.1" x2="900" y2="44.1"/>
<text x="1" y="43.800000000000004" font-size="1.6" fill="#0891b2" stroke="none">G#5</text>
<line x1="0" y1="46.2" x2="900" y2="46.2"/>
<text x="1" y="45.900000000000006" font-size="1.6" fill="#0891b2" stroke="none">G5</text>
<line x1="0" y1="48.3" x2="900" y2="48.3"/>
<text x="1" y="48" font-size="1.6" fill="#0891b2" stroke="none">F#5</text>
<line x1="0" y1="50.400000000000006" x2="900" y2="50.400000000000006"/>
<text x="1" y="50.10000000000001" font-size="1.6" fill="#0891b2" stroke="none">F5</text>
<line x1="0" y1="52.5" x2="900" y2="52.5"/>
<text x="1" y="52.2" font-size="1.6" fill="#0891b2" stroke="none">E5</text>
<line x1="0" y1="54.6" x2="900" y2="54.6"/>
<text x="1" y="54.300000000000004" font-size="1.6" fill="#0891b2" stroke="none">D#5</text>
<line x1="0" y1="56.7" x2="900" y2="56.7"/>
<text x="1" y="56.400000000000006" font-size="1.6" fill="#0891b2" stroke="none">D5</text>
<line x1="0" y1="58.800000000000004" x2="900" y2="58.800000000000004"/>
<text x="1" y="58.50000000000001" font-size="1.6" fill="#0891b2" stroke="none">C#5</text>
<line x1="0" y1="60.9" x2="900" y2="60.9"/>
<text x="1" y="60.6" font-size="1.6" fill="#0891b2" stroke="none">C5</text>
<line x1="0" y1="63" x2="900" y2="63"/>
<text x="1" y="62.7" font-size="1.6" fill="#0891b2" stroke="none">B4</text>
<line x1="0" y1="65.1" x2="900" y2="65.1"/>
<text x="1" y="64.8" font-size="1.6" fill="#0891b2" stroke="none">A#4</text>
<line x1="0" y1="67.2" x2="900" y2="67.2"/>
<text x="1" y="66.9" font-size="1.6" fill="#0891b2" stroke="none">A4</text>
<line x1="0" y1="69.30000000000001" x2="900" y2="69.30000000000001"/>
<text x="1" y="69.00000000000001" font-size="1.6" fill="#0891b2" stroke="none">G4</text>
<line x1="0" y1="71.4" x2="900" y2="71.4"/>
<text x="1" y="71.10000000000001" font-size="1.6" fill="#0891b2" stroke="none">F4</text>
<line x1="0" y1="73.5" x2="900" y2="73.5"/>
<text x="1" y="73.2" font-size="1.6" fill="#0891b2" stroke="none">E4</text>
<line x1="0" y1="75.6" x2="900" y2="75.6"/>
<text x="1" y="75.3" font-size="1.6" fill="#0891b2" stroke="none">D4</text>
<line x1="0" y1="77.7" x2="900" y2="77.7"/>
<text x="1" y="77.4" font-size="1.6" fill="#0891b2" stroke="none">C4</text>
<line x1="0" y1="79.80000000000001" x2="900" y2="79.80000000000001"/>
<text x="1" y="79.50000000000001" font-size="1.6" fill="#0891b2" stroke="none">G3</text>
<line x1="0" y1="81.9" x2="900" y2="81.9"/>
<text x="1" y="81.60000000000001" font-size="1.6" fill="#0891b2" stroke="none">F3</text>
<line x1="20" y1="18" x2="20" y2="88" stroke-dasharray="0.5,0.5"/>
<line x1="880" y1="18" x2="880" y2="88" stroke-dasharray="0.5,0.5"/>
<line x1="20" y1="76.7" x2="20" y2="78.7" stroke-width="0.15"/>
<line x1="28" y1="76.7" x2="28" y2="78.7" stroke-width="0.15"/>
<line x1="36" y1="68.30000000000001" x2="36" y2="70.30000000000001" stroke-width="0.15"/>
<line x1="44" y1="68.30000000000001" x2="44" y2="70.30000000000001" stroke-width="0.15"/>
<line x1="52" y1="66.2" x2="52" y2="68.2" stroke-width="0.15"/>
<line x1="60" y1="66.2" x2="60" y2="68.2" stroke-width="0.15"/>
<line x1="68" y1="68.30000000000001" x2="68" y2="70.30000000000001" stroke-width="0.15"/>
<line x1="84" y1="70.4" x2="84" y2="72.4" stroke-width="0.15"/>
<line x1="92" y1="70.4" x2="92" y2="72.4" stroke-width="0.15"/>
<line x1="100" y1="72.5" x2="100" y2="74.5" stroke-width="0.15"/>
<line x1="108" y1="72.5" x2="108" y2="74.5" stroke-width="0.15"/>
<line x1="116" y1="74.6" x2="116" y2="76.6" stroke-width="0.15"/>
<line x1="124" y1="74.6" x2="124" y2="76.6" stroke-width="0.15"/>
<line x1="132" y1="76.7" x2="132" y2="78.7" stroke-width="0.15"/>
</g>
<g id="REGISTRATION_MARKS" stroke="#16a34a" fill="none" stroke-width="0.15">
<rect x="5" y="110" width="100" height="8"/>
<line x1="5" y1="110" x2="5" y2="118"/>
<line x1="15" y1="110" x2="15" y2="113"/>
<line x1="25" y1="110" x2="25" y2="113"/>
<line x1="35" y1="110" x2="35" y2="113"/>
<line x1="45" y1="110" x2="45" y2="113"/>
<line x1="55" y1="110" x2="55" y2="118"/>
<line x1="65" y1="110" x2="65" y2="113"/>
<line x1="75" y1="110" x2="75" y2="113"/>
<line x1="85" y1="110" x2="85" y2="113"/>
<line x1="95" y1="110" x2="95" y2="113"/>
<line x1="105" y1="110" x2="105" y2="118"/>
<text x="5" y="109" font-size="2" fill="#16a34a" stroke="none">100mm calibration box - measure after printing; it MUST equal exactly 100mm.</text>
<line x1="1.5" y1="21" x2="4.5" y2="21"/>
<line x1="3" y1="19.5" x2="3" y2="22.5"/>
<line x1="895.5" y1="21" x2="898.5" y2="21"/>
<line x1="897" y1="19.5" x2="897" y2="22.5"/>
<line x1="1.5" y1="85" x2="4.5" y2="85"/>
<line x1="3" y1="83.5" x2="3" y2="86.5"/>
<line x1="895.5" y1="85" x2="898.5" y2="85"/>
<line x1="897" y1="83.5" x2="897" y2="86.5"/>
<line x1="10" y1="94" x2="30" y2="94" stroke-width="0.4"/>
<polygon points="30,92 30,96 34,94" fill="#16a34a"/>
</g>
<g id="NO_CUT_LABELS" fill="#111111" stroke="none" font-family="sans-serif">
<text x="2" y="5" font-size="4" font-weight="bold">PRINT AT 100% / ACTUAL SIZE</text>
<text x="2" y="10" font-size="3">Do NOT use "Fit to Page" - scaling will misalign every hole.</text>
<text x="2" y="14" font-size="2.4">Mechanism: Yunsheng Y30H2-style 30-note (F-scale) | Paper: Y30H2 30-note paper (uncalibrated defaults) | Strip 1 of 1 | Feed: left-to-right</text>
<text x="2" y="99" font-size="2.2">Feed direction -&gt; (arrow above). High-note side: top.</text>
</g>
<g id="CUT_OUTLINE" stroke="#e11d1d" fill="none" stroke-width="0.1">
<rect x="0" y="18" width="900" height="70"/>
</g>
<g id="CUT_HOLES" stroke="#e11d1d" fill="none" stroke-width="0.1">
<circle cx="20" cy="77.7" r="1.5875"/>
<circle cx="28" cy="77.7" r="1.5875"/>
<circle cx="36" cy="69.30000000000001" r="1.5875"/>
<circle cx="44" cy="69.30000000000001" r="1.5875"/>
<circle cx="52" cy="67.2" r="1.5875"/>
<circle cx="60" cy="67.2" r="1.5875"/>
<circle cx="68" cy="69.30000000000001" r="1.5875"/>
<circle cx="84" cy="71.4" r="1.5875"/>
<circle cx="92" cy="71.4" r="1.5875"/>
<circle cx="100" cy="73.5" r="1.5875"/>
<circle cx="108" cy="73.5" r="1.5875"/>
<circle cx="116" cy="75.6" r="1.5875"/>
<circle cx="124" cy="75.6" r="1.5875"/>
<circle cx="132" cy="77.7" r="1.5875"/>
</g>
</svg>